# xmcd
#
# Track frame offsets: 
#        150
#        32952
#        62875
#        103165
#        126737
#        142840
#        176882
#        200310
#        218860
#        241847
#        259067
#        281442
#        308952
#
# Disc length: 4534 seconds
#
# Revision: 2
# Processed by: cddbd v1.5.2PL0 Copyright (c) Steve Scherf et al.
# Submitted via: ExactAudioCopy v0.95a5
#
DISCID=cb11b40d
DTITLE=Various Artist - The Hacienda Play By 01-96 CD 2
DYEAR=1995
DGENRE=House
TTITLE0=Taktix - Feel Like Singing
TTITLE1=Danny Tenaglia - Look Ahead featuring Carole Sylan (Continuous
TTITLE1=Program)
TTITLE2=Kim English - I Know A Place (E-Move Remix)
TTITLE3=Loosse feat Yolanda Reynolds - About You
TTITLE4=Wildchild - Renegade Master (Taken from "Legends of the Dark B
TTITLE4=lack - Part 2")
TTITLE5=Giant City - Feel The Spirit (Strike 12" Vocal Mix)
TTITLE6=Love Tribe - Stand Up (Narcotic Mix)
TTITLE7=Rhythm Source - Love Shine (SST Anthem)
TTITLE8=Swing 52 - Color of my Skin (Swing Remix)
TTITLE9=Joe T. Vanelli Project - Sweetest Day of May (Club Gospel Mix)
TTITLE10=Todd Terry Project - Weekend (Greed Remix)
TTITLE11=Kellee - My Love (Ralphi's Revenge Remix)
TTITLE12=Pandella - This Time Baby (Mary's Full-on Mix)
EXTD=
EXTT0=Taktix
EXTT1=Danny Tenaglia
EXTT2=Kim English
EXTT3=Loosse featuring Yolanda Reynolds
EXTT4=Wildchild
EXTT5=Giant City
EXTT6=Love Tribe
EXTT7=Rhythm Source
EXTT8=Swing 52
EXTT9=Joe T. Vanillie Project
EXTT10=Todd Terry Project
EXTT11=Kellee
EXTT12=Pandella
PLAYORDER=
